<svg width="17" height="11" viewBox="0 0 17 11" fill="none" xmlns="http://www.w3.org/2000/svg">
<path d="M4.816 10.14C2.198 10.14 0.77 8.6 0.77 5.226C0.77 3.07 1.582 1.81 2.562 1.082C3.094 0.69 4.284 0.158 5.124 0.158C7.98 0.158 9.156 1.894 9.156 5.058C9.156 7.116 8.092 8.712 7.21 9.328C6.678 9.706 5.754 10.14 4.816 10.14ZM4.718 0.676C3.948 0.676 3.178 0.843999 2.632 1.138C2.086 1.74 1.792 2.888 1.792 5.1C1.792 7.844 2.912 9.594 5.334 9.594C6.006 9.594 6.79 9.44 7.154 9.258C7.952 8.432 8.148 7.032 8.148 5.142C8.148 2.272 7.084 0.676 4.718 0.676ZM15.754 7.074C15.754 5.758 14.76 4.624 13.206 4.624C12.24 4.624 11.568 5.1 10.756 5.772C10.686 5.814 10.546 5.73 10.546 5.646L10.588 1.054C10.588 0.942 11.498 0.325999 11.596 0.325999C11.876 0.325999 13.234 0.354 13.878 0.354H16.062C16.51 0.354 16.664 0.368 16.664 0.409999C16.65 0.647999 16.454 1.768 16.398 2.58L16.328 3.574C16.328 3.672 16.202 3.672 16.202 3.588L16.272 2.58C16.342 1.446 16.048 1.166 14.648 1.152H11.54L11.288 5.24C11.974 4.708 12.814 4.218 13.724 4.218C15.782 4.218 16.874 5.45 16.874 7.116C16.874 8.838 15.628 10.21 13.206 10.21C12.632 10.21 11.652 10.112 10.98 9.972C10.784 9.93 10.826 9.832 10.952 9.846C11.568 9.944 12.24 9.986 12.73 9.986C14.914 9.986 15.754 8.572 15.754 7.074Z" fill="#202833"/>
</svg>
