<svg width="19" height="12" viewBox="0 0 19 12" fill="none" xmlns="http://www.w3.org/2000/svg">
<path d="M4.816 11.14C2.198 11.14 0.77 9.6 0.77 6.226C0.77 4.07 1.582 2.81 2.562 2.082C3.094 1.69 4.284 1.158 5.124 1.158C7.98 1.158 9.156 2.894 9.156 6.058C9.156 8.116 8.092 9.712 7.21 10.328C6.678 10.706 5.754 11.14 4.816 11.14ZM4.718 1.676C3.948 1.676 3.178 1.844 2.632 2.138C2.086 2.74 1.792 3.888 1.792 6.1C1.792 8.844 2.912 10.594 5.334 10.594C6.006 10.594 6.79 10.44 7.154 10.258C7.952 9.432 8.148 8.032 8.148 6.142C8.148 3.272 7.084 1.676 4.718 1.676ZM13.9324 9.166V7.92H10.9364C10.7124 7.92 10.4464 7.934 10.1384 7.962C9.85841 7.99 9.85841 7.878 10.4044 7.206C12.1824 5.022 12.8124 4.028 14.4784 1.382C14.5904 1.2 14.6744 1.102 14.8564 1.06C15.3744 0.92 15.5984 1.046 15.4304 1.396C15.2484 1.774 14.8844 2.082 14.8844 2.67V7.164H15.9764C17.0404 7.15 17.6984 6.646 17.8664 5.554L17.9504 5.022C17.9644 4.938 18.1044 4.938 18.0904 5.036L18.0064 5.582C17.8384 6.674 17.6564 7.766 17.6144 7.85C17.5864 7.892 17.2644 7.92 16.8164 7.92H14.8844V9.166C14.8844 10.804 14.8844 10.832 16.2564 10.86C16.3404 10.86 16.3404 10.986 16.2564 10.986C15.8504 10.986 14.6324 10.958 14.4224 10.958C14.2124 10.958 12.7284 10.986 12.3224 10.986C12.2384 10.986 12.2384 10.86 12.3224 10.86C13.8624 10.818 13.9324 10.804 13.9324 9.166ZM10.6284 7.164H13.9324V3.146C12.8124 4.532 12.0704 5.4 10.6284 7.164Z" fill="#202833"/>
</svg>
