<svg width="18" height="11" viewBox="0 0 18 11" fill="none" xmlns="http://www.w3.org/2000/svg">
<path d="M4.816 10.14C2.198 10.14 0.77 8.6 0.77 5.226C0.77 3.07 1.582 1.81 2.562 1.082C3.094 0.69 4.284 0.158 5.124 0.158C7.98 0.158 9.156 1.894 9.156 5.058C9.156 7.116 8.092 8.712 7.21 9.328C6.678 9.706 5.754 10.14 4.816 10.14ZM4.718 0.676C3.948 0.676 3.178 0.843999 2.632 1.138C2.086 1.74 1.792 2.888 1.792 5.1C1.792 7.844 2.912 9.594 5.334 9.594C6.006 9.594 6.79 9.44 7.154 9.258C7.952 8.432 8.148 7.032 8.148 5.142C8.148 2.272 7.084 0.676 4.718 0.676ZM10.4448 6.248C10.4448 4.33 12.0548 1.39 15.1488 0.228C15.2468 0.186 15.2888 0.284 15.2048 0.312C12.4048 1.418 11.5788 4.204 11.5788 6.08C11.5788 8.124 12.9088 9.846 14.2108 9.846C14.7288 9.846 15.2048 9.762 15.5828 9.538C16.0728 8.838 16.2548 8.236 16.2548 7.2C16.2548 5.422 14.9528 4.554 13.7768 4.554C13.3428 4.554 12.5728 4.806 12.1248 5.212C12.0408 5.254 12.0128 5.198 12.0548 5.156C12.6148 4.596 13.6368 4.05 14.3228 4.05C15.9328 4.05 17.2908 4.918 17.2908 6.962C17.2908 8.18 16.5488 8.964 16.1568 9.356C15.2608 9.86 14.3648 10.182 13.7908 10.182C12.1248 10.182 10.4448 8.922 10.4448 6.248Z" fill="#202833"/>
</svg>
