<svg width="14" height="11" viewBox="0 0 14 11" fill="none" xmlns="http://www.w3.org/2000/svg">
<path d="M4.816 10.14C2.198 10.14 0.77 8.6 0.77 5.226C0.77 3.07 1.582 1.81 2.562 1.082C3.094 0.69 4.284 0.158 5.124 0.158C7.98 0.158 9.156 1.894 9.156 5.058C9.156 7.116 8.092 8.712 7.21 9.328C6.678 9.706 5.754 10.14 4.816 10.14ZM4.718 0.676C3.948 0.676 3.178 0.843999 2.632 1.138C2.086 1.74 1.792 2.888 1.792 5.1C1.792 7.844 2.912 9.594 5.334 9.594C6.006 9.594 6.79 9.44 7.154 9.258C7.952 8.432 8.148 7.032 8.148 5.142C8.148 2.272 7.084 0.676 4.718 0.676ZM10.3048 9.874C11.1308 9.874 11.1728 9.412 11.1728 7.746V2.216C11.1728 1.404 11.0748 1.166 10.1228 1.488C10.0108 1.53 9.95477 1.39 10.0668 1.348C10.9908 1.04 11.5928 0.521999 11.9568 0.228C11.9988 0.186 12.2088 0.255999 12.2088 0.325999V7.746C12.2088 9.398 12.2508 9.874 13.1188 9.874H13.3568C13.4408 9.874 13.4408 10 13.3568 10C12.9508 10 11.9848 9.944 11.7748 9.944C11.5648 9.944 10.5008 10 10.0948 10C10.0108 10 10.0108 9.874 10.0948 9.874H10.3048Z" fill="#202833"/>
</svg>
