<svg width="18" height="11" viewBox="0 0 18 11" fill="none" xmlns="http://www.w3.org/2000/svg">
<path d="M4.816 10.14C2.198 10.14 0.77 8.6 0.77 5.226C0.77 3.07 1.582 1.81 2.562 1.082C3.094 0.69 4.284 0.158 5.124 0.158C7.98 0.158 9.156 1.894 9.156 5.058C9.156 7.116 8.092 8.712 7.21 9.328C6.678 9.706 5.754 10.14 4.816 10.14ZM4.718 0.676C3.948 0.676 3.178 0.843999 2.632 1.138C2.086 1.74 1.792 2.888 1.792 5.1C1.792 7.844 2.912 9.594 5.334 9.594C6.006 9.594 6.79 9.44 7.154 9.258C7.952 8.432 8.148 7.032 8.148 5.142C8.148 2.272 7.084 0.676 4.718 0.676ZM12.6773 10.014C11.7533 10.014 10.4093 10.056 10.2413 10.056C10.2413 10.056 10.1993 9.58 10.2693 9.524C11.5993 8.418 12.4533 7.648 13.3073 6.864C15.1693 5.128 16.0093 4.05 16.0093 2.468C16.0093 1.152 15.3233 0.213999 13.8113 0.213999C12.5933 0.213999 11.8093 0.535999 11.3473 1.446C11.0113 2.132 10.8573 3.168 10.8573 4.652C10.8573 4.778 10.7313 4.778 10.7313 4.652C10.7313 3.07 10.4513 1.432 10.4513 1.082C10.4513 0.956 10.4653 0.787999 10.6053 0.773999C11.6973 0.451999 12.6773 0.0879999 14.0353 0.0879999C15.9813 0.0879999 17.1713 0.956 17.1713 2.44C17.1713 3.812 15.4353 5.156 13.3913 6.962C12.6493 7.62 11.8933 8.334 11.0953 9.132C12.1173 9.132 14.2733 9.132 15.3233 9.104C16.4293 9.09 17.0873 8.642 17.2693 7.382L17.4093 6.43C17.4233 6.346 17.5773 6.346 17.5633 6.444L17.4233 7.41C17.2553 8.614 17.0733 9.874 16.9893 9.986C16.9613 10.014 16.8213 10.042 16.3733 10.042C16.0093 10.042 13.3353 10.014 12.6773 10.014Z" fill="#202833"/>
</svg>
