<svg width="17" height="11" viewBox="0 0 17 11" fill="none" xmlns="http://www.w3.org/2000/svg">
<path d="M4.816 10.14C2.198 10.14 0.77 8.6 0.77 5.226C0.77 3.07 1.582 1.81 2.562 1.082C3.094 0.69 4.284 0.158 5.124 0.158C7.98 0.158 9.156 1.894 9.156 5.058C9.156 7.116 8.092 8.712 7.21 9.328C6.678 9.706 5.754 10.14 4.816 10.14ZM4.718 0.676C3.948 0.676 3.178 0.843999 2.632 1.138C2.086 1.74 1.792 2.888 1.792 5.1C1.792 7.844 2.912 9.594 5.334 9.594C6.006 9.594 6.79 9.44 7.154 9.258C7.952 8.432 8.148 7.032 8.148 5.142C8.148 2.272 7.084 0.676 4.718 0.676ZM10.3059 9.972C10.1099 9.93 10.1519 9.832 10.2779 9.846C10.8939 9.944 11.4539 9.986 11.9439 9.986C14.5059 9.986 15.4299 8.74 15.4299 6.976C15.4299 5.814 14.5199 4.89 13.4979 4.89C12.5879 4.89 11.8739 5.982 11.5379 5.982C11.2019 5.982 11.3699 5.45 11.3839 5.422C13.4419 4.764 14.8559 3.574 14.8559 2.188C14.8559 1.068 14.2819 0.228 12.8819 0.228C12.1539 0.228 11.4959 0.494 11.0339 1.082C10.5719 1.67 10.2919 2.58 10.2919 3.868C10.2919 3.994 10.1659 3.994 10.1659 3.868C10.1659 2.216 10.0539 1.25 10.0539 1.054C10.0539 0.928 10.0679 0.76 10.2079 0.746C11.3839 0.339999 12.5599 0.0739993 13.3299 0.0739993C14.9259 0.0739993 16.0039 0.843999 16.0179 1.964C16.0459 3.042 14.5619 3.952 12.9099 4.904C13.3299 4.75 13.7359 4.652 14.0999 4.652C15.5559 4.652 16.5779 5.604 16.5779 7.102C16.5779 8.698 15.4719 10.21 12.8399 10.21C12.1399 10.21 10.9779 10.112 10.3059 9.972Z" fill="#202833"/>
</svg>
