<svg width="50" height="50" viewBox="0 0 50 50" fill="none" xmlns="http://www.w3.org/2000/svg">
<rect x="0.5" y="0.5" width="49" height="49" rx="24.5" fill="#213555"/>
<rect x="0.5" y="0.5" width="49" height="49" rx="24.5" stroke="white"/>
<g clip-path="url(#clip0_979_409)">
<path d="M33.4615 16.4876C32.36 15.378 31.049 14.4983 29.6047 13.8996C28.1604 13.301 26.6115 12.9952 25.048 13.0001C18.4945 13.0001 13.1605 18.3341 13.1605 24.8921C13.1605 26.9876 13.7095 29.0366 14.749 30.8366L13.0615 37.0001L19.366 35.3456C21.109 36.295 23.0618 36.7931 25.0465 36.7946H25.051C31.6045 36.7946 36.943 31.4606 36.943 24.9026C36.947 23.3396 36.6413 21.7914 36.0434 20.3473C35.4456 18.9032 34.5676 17.5919 33.46 16.4891L33.4615 16.4876ZM25.051 34.7876C23.2798 34.7879 21.541 34.3117 20.017 33.4091L19.6555 33.1931L15.9145 34.1726L16.9135 30.5261L16.6795 30.1511C15.6862 28.5772 15.1612 26.7532 15.166 24.8921C15.1692 22.2702 16.2124 19.7567 18.0668 17.9032C19.9212 16.0496 22.4352 15.0075 25.057 15.0056C27.6955 15.0056 30.181 16.0376 32.0455 17.9021C32.9656 18.8188 33.6949 19.9089 34.1913 21.1091C34.6877 22.3094 34.9413 23.5962 34.9375 24.8951C34.933 30.3506 30.499 34.7876 25.051 34.7876ZM30.4705 27.3821C30.175 27.2321 28.7125 26.5151 28.441 26.4161C28.1695 26.3171 27.9715 26.2661 27.7705 26.5661C27.574 26.8616 27.0025 27.5321 26.8285 27.7331C26.6545 27.9296 26.482 27.9581 26.1865 27.8081C25.891 27.6581 24.9295 27.3446 23.7955 26.3321C22.9135 25.5446 22.315 24.5696 22.141 24.2741C21.967 23.9786 22.1215 23.8151 22.273 23.6696C22.4095 23.5376 22.5685 23.3231 22.7185 23.1491C22.8685 22.9751 22.915 22.8536 23.014 22.6526C23.113 22.4561 23.065 22.2821 22.99 22.1321C22.915 21.9821 22.3195 20.5196 22.0765 19.9241C21.838 19.3421 21.589 19.4231 21.406 19.4126C21.232 19.4036 21.0355 19.4036 20.839 19.4036C20.6425 19.4036 20.3185 19.4786 20.047 19.7741C19.7755 20.0696 19.006 20.7911 19.006 22.2536C19.006 23.7161 20.0695 25.1276 20.2195 25.3286C20.3695 25.5251 22.315 28.5296 25.2955 29.8151C26.0035 30.1196 26.557 30.3026 26.9875 30.4436C27.7 30.6686 28.3465 30.6356 28.858 30.5606C29.4295 30.4766 30.616 29.8436 30.865 29.1491C31.114 28.4546 31.114 27.8606 31.039 27.7376C30.9685 27.6056 30.772 27.5321 30.472 27.3806L30.4705 27.3821Z" fill="white"/>
</g>
<defs>
<clipPath id="clip0_979_409">
<rect width="24" height="24" fill="white" transform="translate(13 13)"/>
</clipPath>
</defs>
</svg>
