<svg width="24" height="24" viewBox="0 0 24 24" fill="none" xmlns="http://www.w3.org/2000/svg">
<g clip-path="url(#clip0_774_368)">
<path d="M20.4615 3.48756C19.36 2.378 18.049 1.49833 16.6047 0.89964C15.1604 0.300952 13.6115 -0.00482786 12.048 5.76301e-05C5.49452 5.76301e-05 0.160523 5.33406 0.160523 11.8921C0.160523 13.9876 0.709523 16.0366 1.74902 17.8366L0.0615234 24.0001L6.36602 22.3456C8.10896 23.295 10.0618 23.7931 12.0465 23.7946H12.051C18.6045 23.7946 23.943 18.4606 23.943 11.9026C23.947 10.3396 23.6413 8.79137 23.0434 7.34728C22.4456 5.90318 21.5676 4.59186 20.46 3.48906L20.4615 3.48756ZM12.051 21.7876C10.2798 21.7879 8.54102 21.3117 7.01702 20.4091L6.65552 20.1931L2.91452 21.1726L3.91352 17.5261L3.67952 17.1511C2.68616 15.5772 2.16121 13.7532 2.16602 11.8921C2.1692 9.27019 3.21245 6.75669 5.06681 4.90317C6.92118 3.04965 9.43516 2.00754 12.057 2.00556C14.6955 2.00556 17.181 3.03756 19.0455 4.90206C19.9656 5.81884 20.6949 6.90886 21.1913 8.10915C21.6877 9.30943 21.9413 10.5962 21.9375 11.8951C21.933 17.3506 17.499 21.7876 12.051 21.7876ZM17.4705 14.3821C17.175 14.2321 15.7125 13.5151 15.441 13.4161C15.1695 13.3171 14.9715 13.2661 14.7705 13.5661C14.574 13.8616 14.0025 14.5321 13.8285 14.7331C13.6545 14.9296 13.482 14.9581 13.1865 14.8081C12.891 14.6581 11.9295 14.3446 10.7955 13.3321C9.91352 12.5446 9.31502 11.5696 9.14102 11.2741C8.96702 10.9786 9.12152 10.8151 9.27302 10.6696C9.40952 10.5376 9.56852 10.3231 9.71852 10.1491C9.86852 9.97506 9.91502 9.85356 10.014 9.65256C10.113 9.45606 10.065 9.28206 9.99002 9.13206C9.91502 8.98206 9.31952 7.51956 9.07652 6.92406C8.83802 6.34206 8.58902 6.42306 8.40602 6.41256C8.23202 6.40356 8.03552 6.40356 7.83902 6.40356C7.64252 6.40356 7.31852 6.47856 7.04702 6.77406C6.77552 7.06956 6.00602 7.79106 6.00602 9.25356C6.00602 10.7161 7.06952 12.1276 7.21952 12.3286C7.36952 12.5251 9.31502 15.5296 12.2955 16.8151C13.0035 17.1196 13.557 17.3026 13.9875 17.4436C14.7 17.6686 15.3465 17.6356 15.858 17.5606C16.4295 17.4766 17.616 16.8436 17.865 16.1491C18.114 15.4546 18.114 14.8606 18.039 14.7376C17.9685 14.6056 17.772 14.5321 17.472 14.3806L17.4705 14.3821Z" fill="white"/>
</g>
<defs>
<clipPath id="clip0_774_368">
<rect width="24" height="24" fill="white"/>
</clipPath>
</defs>
</svg>
