<svg width="50" height="50" viewBox="0 0 50 50" fill="none" xmlns="http://www.w3.org/2000/svg">
<rect x="0.5" y="0.5" width="49" height="49" rx="24.5" fill="#213555"/>
<rect x="0.5" y="0.5" width="49" height="49" rx="24.5" stroke="white"/>
<path d="M23 28L28.19 25L23 22V28ZM34.56 20.17C34.69 20.64 34.78 21.27 34.84 22.07C34.91 22.87 34.94 23.56 34.94 24.16L35 25C35 27.19 34.84 28.8 34.56 29.83C34.31 30.73 33.73 31.31 32.83 31.56C32.36 31.69 31.5 31.78 30.18 31.84C28.88 31.91 27.69 31.94 26.59 31.94L25 32C20.81 32 18.2 31.84 17.17 31.56C16.27 31.31 15.69 30.73 15.44 29.83C15.31 29.36 15.22 28.73 15.16 27.93C15.09 27.13 15.06 26.44 15.06 25.84L15 25C15 22.81 15.16 21.2 15.44 20.17C15.69 19.27 16.27 18.69 17.17 18.44C17.64 18.31 18.5 18.22 19.82 18.16C21.12 18.09 22.31 18.06 23.41 18.06L25 18C29.19 18 31.8 18.16 32.83 18.44C33.73 18.69 34.31 19.27 34.56 20.17Z" fill="white"/>
</svg>
