<svg width="24" height="24" viewBox="0 0 24 24" fill="none" xmlns="http://www.w3.org/2000/svg">
<g clip-path="url(#clip0_998_696)">
<path fill-rule="evenodd" clip-rule="evenodd" d="M22.133 7.448C22.08 8.888 21.516 12.969 17.243 17.243C12.969 21.516 8.88897 22.079 7.44797 22.133C5.25197 22.213 3.11897 20.531 2.28597 18.588C2.18494 18.354 2.14647 18.0978 2.17435 17.8445C2.20222 17.5911 2.29548 17.3494 2.44497 17.143C3.61097 15.543 5.37497 14.439 6.76197 13.491C7.0667 13.2824 7.43752 13.1932 7.80377 13.2404C8.17002 13.2877 8.5061 13.468 8.74797 13.747L10.197 15.698C10.265 15.7923 10.365 15.8586 10.4783 15.8847C10.5916 15.9108 10.7105 15.8949 10.813 15.84C11.616 15.398 12.812 14.612 13.712 13.712C14.612 12.811 15.45 11.559 15.942 10.7C16.0024 10.5923 16.0193 10.4655 15.9892 10.3457C15.9591 10.226 15.8842 10.1223 15.78 10.056L13.847 8.786C13.5368 8.55251 13.329 8.20807 13.2672 7.82482C13.2053 7.44157 13.2941 7.04924 13.515 6.73C14.489 5.323 15.574 3.681 17.113 2.479C17.3209 2.31737 17.5684 2.21456 17.8296 2.18131C18.0908 2.14807 18.3562 2.1856 18.598 2.29C20.551 3.127 22.214 5.245 22.133 7.448Z" fill="white"/>
</g>
<defs>
<clipPath id="clip0_998_696">
<rect width="24" height="24" fill="white" transform="matrix(0 -1 1 0 0 24)"/>
</clipPath>
</defs>
</svg>
