<svg width="29" height="11" viewBox="0 0 29 11" fill="none" xmlns="http://www.w3.org/2000/svg">
<path d="M7.218 10.5H-0.00599997V0.49H7.078V1.82H1.534V4.662H6.392V5.992H1.534V9.17H7.218V10.5ZM10.762 10.5H9.22197V0.49H10.986L15.634 8.19H15.662V0.49H17.216V10.5H15.452L10.79 2.8H10.762V10.5ZM23.7944 10.696C20.9104 10.696 19.2864 8.512 19.2864 5.488C19.2864 2.478 21.1204 0.294 23.9764 0.294C26.5664 0.294 27.9384 1.68 28.2604 3.584H26.6504C26.3844 2.324 25.4464 1.624 23.9624 1.624C21.7504 1.624 20.8964 3.612 20.8964 5.488C20.8964 7.378 21.5404 9.366 23.8784 9.366C25.5304 9.366 26.8464 8.218 26.8604 6.552H23.9064V5.264H28.4284V10.5H27.3644L26.9864 9.114H26.9584C26.2584 10.136 25.3204 10.696 23.7944 10.696Z" fill="#6E7A8A"/>
</svg>
